<svg xmlns="http://www.w3.org/2000/svg" width="129.219" height="51.594" viewBox="0 0 129.219 51.594">
  <defs>
    <style>
      .cls-1 {
        fill: #262626;
        fill-rule: evenodd;
      }
    </style>
  </defs>
  <path id="logo.svg" class="cls-1" d="M203.482,83.659a24.062,24.062,0,0,0-4.162,2.111q-1.966,1.252-3.858,2.63t-3.784,2.743A34.783,34.783,0,0,1,187.76,93.6a22.914,22.914,0,0,1-4.26,1.757,16.717,16.717,0,0,1-4.822.67,10.431,10.431,0,0,1-3.736-.632,7.052,7.052,0,0,1-2.807-1.922,8.86,8.86,0,0,1-1.77-3.224,14.857,14.857,0,0,1-.623-4.539,23.521,23.521,0,0,1,.354-3.878,37.48,37.48,0,0,1,1.013-4.346,44.009,44.009,0,0,1,1.6-4.494,41.049,41.049,0,0,1,2.112-4.334,34.611,34.611,0,0,1,2.552-3.9,20.485,20.485,0,0,1,2.917-3.152,13.758,13.758,0,0,1,3.211-2.105,8.064,8.064,0,0,1,3.43-.776,6.327,6.327,0,0,1,2.527.452,4.767,4.767,0,0,1,1.7,1.2,4.5,4.5,0,0,1,.952,1.733,7.287,7.287,0,0,1,.293,2.087,8.735,8.735,0,0,1-.817,3.8,10.207,10.207,0,0,1-2.1,2.966,9.427,9.427,0,0,1-2.881,1.929,8,8,0,0,1-3.162.684,4.48,4.48,0,0,1-.964-0.085,5.363,5.363,0,0,1-.647-0.183q-0.269-.1-0.488-0.183a1.418,1.418,0,0,0-.513-0.085,1.133,1.133,0,0,0-.769.244,1.545,1.545,0,0,0-.427.635,3.432,3.432,0,0,0-.195.867,8.856,8.856,0,0,0-.049.915q0,0.293.012,0.562t0.012,0.464a1.873,1.873,0,0,0,1.1,1.721,7.163,7.163,0,0,0,3.32.6A9.491,9.491,0,0,0,187.2,78.4a14.833,14.833,0,0,0,3.247-1.721,17.286,17.286,0,0,0,2.918-2.576,19.329,19.329,0,0,0,2.356-3.186,16.72,16.72,0,0,0,1.574-3.54,12.214,12.214,0,0,0,.574-3.65,11.016,11.016,0,0,0-.915-4.663,9.955,9.955,0,0,0-2.356-3.271,9.407,9.407,0,0,0-3.247-1.916,10.9,10.9,0,0,0-3.565-.623,15.628,15.628,0,0,0-5.224.885,20.343,20.343,0,0,0-4.786,2.446,27.116,27.116,0,0,0-4.272,3.663,35.675,35.675,0,0,0-3.674,4.56,42.419,42.419,0,0,0-2.991,5.138,44.9,44.9,0,0,0-2.234,5.371,38.751,38.751,0,0,0-1.4,5.286,26.276,26.276,0,0,0-.488,4.855,18.972,18.972,0,0,0,1.013,6.2,16,16,0,0,0,2.893,5.178,13.98,13.98,0,0,0,4.529,3.541,13.209,13.209,0,0,0,5.945,1.313,33.856,33.856,0,0,0,5.432-.4,29.094,29.094,0,0,0,4.492-1.079,23.9,23.9,0,0,0,3.723-1.581,31.8,31.8,0,0,0,3.113-1.892,23.58,23.58,0,0,0,2.661-2.141q1.233-1.15,2.381-2.187t2.27-1.909a11.2,11.2,0,0,1,2.319-1.4V83.659Zm21.312,1.918a37.344,37.344,0,0,1-2.417,2.953q-0.513.557-1.087,1.077a12.872,12.872,0,0,1-1.147.932,6.688,6.688,0,0,1-1.136.665,2.6,2.6,0,0,1-1.074.254,0.853,0.853,0,0,1-.891-0.631,5.834,5.834,0,0,1-.207-1.749,16.113,16.113,0,0,1,.4-3.22l0.719-3.4q0.315-1.492.559-2.915a15.394,15.394,0,0,0,.244-2.589,4.356,4.356,0,0,0-.134-1.209,1.643,1.643,0,0,0-.379-0.691,1.158,1.158,0,0,0-.565-0.321,3.041,3.041,0,0,0-.687-0.074c-0.18,0-.365,0-0.553.013s-0.372.012-.552,0.012a5.217,5.217,0,0,1-.627-0.037,2.22,2.22,0,0,1-.6-0.16,1.145,1.145,0,0,1-.492-0.395q-0.2-.271-0.405-0.555a2.215,2.215,0,0,0-.528-0.506,1.531,1.531,0,0,0-.884-0.222,8.2,8.2,0,0,0-3.328.718,13.253,13.253,0,0,0-3.107,1.934A17.064,17.064,0,0,0,203.2,78.3a22.589,22.589,0,0,0-2.321,3.869,23.937,23.937,0,0,0-1.6,4.16,14.418,14.418,0,0,0-.515,3.746A7.859,7.859,0,0,0,199.283,93a6.746,6.746,0,0,0,1.367,2.192,5.944,5.944,0,0,0,1.966,1.379,5.69,5.69,0,0,0,2.282.48,7.073,7.073,0,0,0,2.215-.362,12.122,12.122,0,0,0,2.129-.93,12.948,12.948,0,0,0,1.883-1.269,11.879,11.879,0,0,0,1.452-1.377,8.361,8.361,0,0,0,1.87,2.985,3.778,3.778,0,0,0,2.7,1.027,6,6,0,0,0,2.686-.666,13.207,13.207,0,0,0,2.514-1.63,18.481,18.481,0,0,0,2.112-2.024,22.933,22.933,0,0,0,1.5-1.852ZM205.3,86.763a17.156,17.156,0,0,1,.965-2.807,17.8,17.8,0,0,1,1.391-2.687,12.012,12.012,0,0,1,1.551-1.936A7.267,7.267,0,0,1,211,77.99a4.181,4.181,0,0,1,1.953-.5l-1.821,7.937a13.96,13.96,0,0,1-.428,1.966,13.546,13.546,0,0,1-.868,2.286,7.646,7.646,0,0,1-1.272,1.892,2.2,2.2,0,0,1-1.638.787,1.452,1.452,0,0,1-.929-0.29,2.057,2.057,0,0,1-.587-0.755,3.7,3.7,0,0,1-.306-1.058,8.535,8.535,0,0,1-.085-1.221A10.1,10.1,0,0,1,205.3,86.763Zm26.648-5.02q0.829-1.554,1.917-3.6t2.209-4.353q1.124-2.306,2.2-4.76t1.917-4.846a43.333,43.333,0,0,0,1.355-4.612,18.1,18.1,0,0,0,.513-4.045,11.589,11.589,0,0,0-.2-2.222,4.413,4.413,0,0,0-.695-1.707,3.328,3.328,0,0,0-1.343-1.105,5.136,5.136,0,0,0-2.161-.393,7.465,7.465,0,0,0-4.5,1.418,12.832,12.832,0,0,0-3.41,3.827,26.224,26.224,0,0,0-2.469,5.575,41.383,41.383,0,0,0-1.527,6.671q-0.513,3.5-1.03,7.045t-0.713,6.843q-0.2,3.3-.232,6.017t-0.037,4.39q0,0.964.073,1.881a6.813,6.813,0,0,0,.318,1.64,2.753,2.753,0,0,0,.708,1.158,1.778,1.778,0,0,0,1.269.436,1.812,1.812,0,0,0,1-.252,2.546,2.546,0,0,0,.72-0.745,7.936,7.936,0,0,0,.672-1.3q0.342-.809.879-1.9a41.323,41.323,0,0,1,2.405-4.262q1.329-2.064,2.575-3.719t2.234-2.741a9.2,9.2,0,0,1,1.4-1.352l0.513,0.074a3.318,3.318,0,0,0-.331.543q-0.254.469-.6,1.209t-0.737,1.677q-0.393.937-.711,1.923t-0.533,1.961a8.152,8.152,0,0,0-.216,1.763,9.518,9.518,0,0,0,.324,2.373,8.448,8.448,0,0,0,.975,2.315,5.658,5.658,0,0,0,1.661,1.745,4.147,4.147,0,0,0,2.386.686,6.728,6.728,0,0,0,1.844-.275,15.047,15.047,0,0,0,1.928-.7,19.578,19.578,0,0,0,1.917-.974q0.953-.551,1.77-1.09t1.489-1.02q0.671-.481,1.111-0.8l-0.415-6.5a28.1,28.1,0,0,1-2.637,2.861q-0.561.543-1.2,1.048a11.976,11.976,0,0,1-1.294.9,8.112,8.112,0,0,1-1.318.641,3.564,3.564,0,0,1-1.246.246,0.869,0.869,0,0,1-.756-0.6,3.635,3.635,0,0,1-.293-1.592,13.266,13.266,0,0,1,.451-3.483,17.845,17.845,0,0,1,1.746-3.956,19.1,19.1,0,0,0,1.758-3.894,11.82,11.82,0,0,0,.464-3.3,3.684,3.684,0,0,0-.22-1.381,2.279,2.279,0,0,0-.549-0.834,1.845,1.845,0,0,0-.7-0.41,2.278,2.278,0,0,0-.659-0.112,4.558,4.558,0,0,0-2.5.89,26.426,26.426,0,0,0-3.418,2.922,40.633,40.633,0,0,0-3.332,3.587q-1.245,1.555-2.246,2.909ZM233.492,69.4l-1.431,3.344q-0.759,1.77-1.542,3.576t-1.443,3.344q0.285-2.775.82-5.672,0.177-1.231.378-2.619t0.408-2.824q0.207-1.436.562-2.876t0.769-2.783a51.58,51.58,0,0,1,2.931-6.028q1.245-2.074,1.88-2.074,0.52,0,.521,1.855a17.334,17.334,0,0,1-.649,3.784,56.577,56.577,0,0,1-2.091,6.3Q234.164,67.824,233.492,69.4Zm27.9,27.262a17.224,17.224,0,0,0,2.759-.9,20.219,20.219,0,0,0,2.539-1.295q1.209-.729,2.258-1.484a32.513,32.513,0,0,0,4.566-4.048l-3.15-3.2a24.734,24.734,0,0,1-2.319,1.922,26.93,26.93,0,0,1-2.905,1.874,20.416,20.416,0,0,1-3.162,1.432,9.28,9.28,0,0,1-3.088.573,3.77,3.77,0,0,1-.87-0.1,2.438,2.438,0,0,1-.772-0.334,3.249,3.249,0,0,1-.723-0.668,7.592,7.592,0,0,1-.723-1.075,17.035,17.035,0,0,0,3.951-1.6,14.569,14.569,0,0,0,3.144-2.34,13.3,13.3,0,0,0,2.312-3.151,7.124,7.124,0,0,0,.991-3.318,6.221,6.221,0,0,0-.489-2.511,5.58,5.58,0,0,0-1.356-1.914,6.231,6.231,0,0,0-2.041-1.231,7.2,7.2,0,0,0-2.542-.439,7.634,7.634,0,0,0-3.048.59,8.914,8.914,0,0,0-2.476,1.59,10.965,10.965,0,0,0-1.931,2.313,15.351,15.351,0,0,0-1.372,2.759q-0.546,1.446-1.056,3.313a12.5,12.5,0,0,0-.51,3.217,13.477,13.477,0,0,0,.57,3.939,9.811,9.811,0,0,0,1.71,3.305,8.27,8.27,0,0,0,2.849,2.273A8.9,8.9,0,0,0,258.5,97,12.457,12.457,0,0,0,261.394,96.661Zm-6.105-12.554a7.422,7.422,0,0,1,.454-1.886q0.4-1.146.71-1.922a5.093,5.093,0,0,1,.809-1.384,3.76,3.76,0,0,1,3.051-1.373,1.164,1.164,0,0,1,.993.692,3.471,3.471,0,0,1,.4,1.767,3.588,3.588,0,0,1-.858,1.934A9.261,9.261,0,0,1,259.1,83.8a8.725,8.725,0,0,1-1.936,1.134,4.961,4.961,0,0,1-1.924.441Q255.24,84.847,255.289,84.107ZM279.8,96.661a17.224,17.224,0,0,0,2.759-.9,20.219,20.219,0,0,0,2.539-1.295q1.209-.729,2.258-1.484a32.513,32.513,0,0,0,4.566-4.048l-3.15-3.2a24.734,24.734,0,0,1-2.319,1.922,26.93,26.93,0,0,1-2.9,1.874,20.416,20.416,0,0,1-3.162,1.432,9.276,9.276,0,0,1-3.088.573,3.77,3.77,0,0,1-.87-0.1,2.438,2.438,0,0,1-.772-0.334,3.271,3.271,0,0,1-.723-0.668,7.592,7.592,0,0,1-.723-1.075,17.061,17.061,0,0,0,3.952-1.6,14.586,14.586,0,0,0,3.143-2.34,13.273,13.273,0,0,0,2.312-3.151,7.124,7.124,0,0,0,.991-3.318,6.221,6.221,0,0,0-.489-2.511,5.567,5.567,0,0,0-1.356-1.914,6.231,6.231,0,0,0-2.041-1.231,7.2,7.2,0,0,0-2.542-.439,7.626,7.626,0,0,0-3.047.59,8.9,8.9,0,0,0-2.477,1.59,11,11,0,0,0-1.931,2.313,15.417,15.417,0,0,0-1.372,2.759q-0.546,1.446-1.056,3.313a12.5,12.5,0,0,0-.51,3.217,13.477,13.477,0,0,0,.57,3.939,9.811,9.811,0,0,0,1.71,3.305,8.279,8.279,0,0,0,2.849,2.273,8.9,8.9,0,0,0,3.99.845A12.457,12.457,0,0,0,279.8,96.661ZM273.7,84.107a7.422,7.422,0,0,1,.454-1.886q0.4-1.146.711-1.922a5.09,5.09,0,0,1,.808-1.384,3.76,3.76,0,0,1,3.051-1.373,1.164,1.164,0,0,1,.993.692,3.471,3.471,0,0,1,.4,1.767,3.588,3.588,0,0,1-.858,1.934,9.261,9.261,0,0,1-1.752,1.862,8.7,8.7,0,0,1-1.936,1.134,4.958,4.958,0,0,1-1.924.441Q273.648,84.847,273.7,84.107Z" transform="translate(-162.719 -50.094)"/>
</svg>
